<svg width="1097" height="849" viewBox="0 0 1097 849" fill="none" xmlns="http://www.w3.org/2000/svg">
<g filter="url(#filter0_f_411_321)">
<path d="M46.9004 315.267C234.567 760.061 331.337 285.916 395.776 627.358C447.131 899.475 726.577 802.648 837.938 752.111C856.488 743.693 878.15 759.858 874.458 779.891L780.196 1291.35C777.794 1304.38 765.279 1313 752.244 1310.6L-34.2873 1165.64C-45.0702 1163.66 -53.0927 1155.19 -53.7885 1144.25C-63.6221 989.599 -127.604 -98.331 46.9004 315.267Z" fill="#AA97EF" fill-opacity="0.5"/>
<path d="M46.4397 315.461C93.3644 426.679 134.649 480.565 171.252 504.084C207.916 527.642 239.809 520.689 267.719 510.539C272.56 508.779 277.27 506.928 281.861 505.123C290.532 501.715 298.78 498.472 306.685 496.325C318.749 493.048 329.872 492.367 340.246 497.544C350.63 502.727 360.367 513.831 369.525 534.364C378.681 554.893 387.232 584.786 395.284 627.451C408.14 695.569 435.283 740.656 470.555 769.146C505.822 797.632 549.162 809.481 594.335 811.229C684.659 814.725 782.451 777.841 838.144 752.567C856.349 744.305 877.581 760.188 873.966 779.8L779.705 1291.26C777.352 1304.02 765.098 1312.46 752.334 1310.11L-34.1967 1165.15C-44.7697 1163.2 -52.6092 1154.91 -53.2895 1144.21C-58.2063 1066.89 -76.6587 756.265 -72.0707 516.674C-70.9237 456.777 -68.3369 401.328 -63.7398 355.077C-59.1413 308.813 -52.5353 271.799 -43.3693 248.746C-38.782 237.208 -33.586 229.253 -27.756 225.348C-24.8535 223.403 -21.7963 222.464 -18.5652 222.579C-15.3285 222.695 -11.8785 223.869 -8.20019 226.217C-0.83033 230.922 7.37625 240.287 16.4791 254.982C25.5752 269.665 35.5386 289.624 46.4397 315.461Z" stroke="black"/>
</g>
<defs>
<filter id="filter0_f_411_321" x="-295.297" y="0.0703125" width="1392.17" height="1532.93" filterUnits="userSpaceOnUse" color-interpolation-filters="sRGB">
<feFlood flood-opacity="0" result="BackgroundImageFix"/>
<feBlend mode="normal" in="SourceGraphic" in2="BackgroundImageFix" result="shape"/>
<feGaussianBlur stdDeviation="111" result="effect1_foregroundBlur_411_321"/>
</filter>
</defs>
</svg>
